<?xml version="1.0" encoding="UTF-8" standalone="no"?>
<!DOCTYPE svg PUBLIC "-//W3C//DTD SVG 1.1//EN"
 "http://www.w3.org/Graphics/SVG/1.1/DTD/svg11.dtd">
<!-- Generated by graphviz version 2.40.1 (20161225.0304)
 -->
<!-- Title: G Pages: 1 -->
<svg width="1593pt" height="502pt"
 viewBox="0.00 0.00 1593.00 502.00" xmlns="http://www.w3.org/2000/svg" xmlns:xlink="http://www.w3.org/1999/xlink">
<g id="graph0" class="graph" transform="scale(1 1) rotate(0) translate(4 498)">
<title>G</title>
<polygon fill="#ffffff" stroke="transparent" points="-4,4 -4,-498 1589,-498 1589,4 -4,4"/>
<!-- A0 -->
<g id="node1" class="node">
<title>A0</title>
<polygon fill="none" stroke="#000000" points="0,-292 0,-324 258,-324 258,-292 0,-292"/>
<text text-anchor="start" x="100.1005" y="-305" font-family="Helvetica,sans-Serif" font-size="10.00" fill="#000000">Parqueadero</text>
<polygon fill="none" stroke="#000000" points="0,-260 0,-292 258,-292 258,-260 0,-260"/>
<text text-anchor="start" x="84.2675" y="-273" font-family="Helvetica,sans-Serif" font-size="10.00" fill="#000000">&#45;puestos:HashTable</text>
<polygon fill="none" stroke="#000000" points="0,-96 0,-260 258,-260 258,-96 0,-96"/>
<text text-anchor="start" x="35.523" y="-241" font-family="Helvetica,sans-Serif" font-size="10.00" fill="#000000">+constructor(administrador:Administrador)</text>
<text text-anchor="start" x="52.7455" y="-229" font-family="Helvetica,sans-Serif" font-size="10.00" fill="#000000">+getAdministrador():Administrador</text>
<text text-anchor="start" x="72.18" y="-217" font-family="Helvetica,sans-Serif" font-size="10.00" fill="#000000">+getPuestos():HashTable</text>
<text text-anchor="start" x="66.6215" y="-205" font-family="Helvetica,sans-Serif" font-size="10.00" fill="#000000">+getCapacidad():Capacidad</text>
<text text-anchor="start" x="53.5745" y="-193" font-family="Helvetica,sans-Serif" font-size="10.00" fill="#000000">+getRegistros():RegistroVehiculo*</text>
<text text-anchor="start" x="68.302" y="-181" font-family="Helvetica,sans-Serif" font-size="10.00" fill="#000000">+agregarRegistro(Registro)</text>
<text text-anchor="start" x="54.4145" y="-169" font-family="Helvetica,sans-Serif" font-size="10.00" fill="#000000">+setAdministrador(Administrador)</text>
<text text-anchor="start" x="28.8385" y="-157" font-family="Helvetica,sans-Serif" font-size="10.00" fill="#000000">+parquearVehiculo(Posicion,Vehiculo,Fecha)</text>
<text text-anchor="start" x="50.7895" y="-145" font-family="Helvetica,sans-Serif" font-size="10.00" fill="#000000">+entregarVehiculo(Posicion,Fecha)</text>
<text text-anchor="start" x="9.673" y="-133" font-family="Helvetica,sans-Serif" font-size="10.00" fill="#000000">+obtenerRegistroVehiculo(Vehiculo):RegistroVehiculo</text>
<text text-anchor="start" x="39.3965" y="-121" font-family="Helvetica,sans-Serif" font-size="10.00" fill="#000000">+obtenerGanaciasDelDia(Fecha):double</text>
<text text-anchor="start" x="50.51" y="-109" font-family="Helvetica,sans-Serif" font-size="10.00" fill="#000000">+obtenerGananciasDelDia():double</text>
</g>
<!-- A1 -->
<g id="node2" class="node">
<title>A1</title>
<polygon fill="none" stroke="#000000" points="372,-462 372,-494 581,-494 581,-462 372,-462"/>
<text text-anchor="start" x="452.604" y="-475" font-family="Helvetica,sans-Serif" font-size="10.00" fill="#000000">Capacidad</text>
<polygon fill="none" stroke="#000000" points="372,-418 372,-462 581,-462 581,-418 372,-418"/>
<text text-anchor="start" x="449.831" y="-443" font-family="Helvetica,sans-Serif" font-size="10.00" fill="#000000">&#45;filas:Entero</text>
<text text-anchor="start" x="437.327" y="-431" font-family="Helvetica,sans-Serif" font-size="10.00" fill="#000000">&#45;columnas:Entero</text>
<polygon fill="none" stroke="#000000" points="372,-362 372,-418 581,-418 581,-362 372,-362"/>
<text text-anchor="start" x="381.623" y="-399" font-family="Helvetica,sans-Serif" font-size="10.00" fill="#000000">+constructor(filas:Entero,columnas:Entero)</text>
<text text-anchor="start" x="436.6335" y="-387" font-family="Helvetica,sans-Serif" font-size="10.00" fill="#000000">+getFilas():Entero</text>
<text text-anchor="start" x="428.014" y="-375" font-family="Helvetica,sans-Serif" font-size="10.00" fill="#000000">+getColumnas:Entero</text>
</g>
<!-- A0&#45;&gt;A1 -->
<g id="edge2" class="edge">
<title>A0&#45;&gt;A1</title>
<path fill="none" stroke="#000000" d="M268.2436,-321.7962C281.4338,-331.023 294.8093,-339.9019 308,-348 325.0345,-358.4579 343.6488,-368.534 362.0842,-377.8019"/>
<polygon fill="none" stroke="#000000" points="267.9907,-321.6171 260.7825,-321.4123 258.1992,-314.6797 265.4074,-314.8846 267.9907,-321.6171"/>
<polygon fill="#000000" stroke="#000000" points="371.1122,-382.2847 360.1543,-381.8677 366.6339,-380.061 362.1556,-377.8373 362.1556,-377.8373 362.1556,-377.8373 366.6339,-380.061 364.157,-373.8068 371.1122,-382.2847 371.1122,-382.2847"/>
</g>
<!-- A2 -->
<g id="node3" class="node">
<title>A2</title>
<polygon fill="none" stroke="#000000" points="694,-332 694,-364 1118,-364 1118,-332 694,-332"/>
<text text-anchor="start" x="886.8285" y="-345" font-family="Helvetica,sans-Serif" font-size="10.00" fill="#000000">Vehiculo</text>
<polygon fill="none" stroke="#000000" points="694,-288 694,-332 1118,-332 1118,-288 694,-288"/>
<text text-anchor="start" x="878.495" y="-313" font-family="Helvetica,sans-Serif" font-size="10.00" fill="#000000">&#45;placa:Texto</text>
<text text-anchor="start" x="874.051" y="-301" font-family="Helvetica,sans-Serif" font-size="10.00" fill="#000000">&#45;modelo:Texto</text>
<polygon fill="none" stroke="#000000" points="694,-208 694,-288 1118,-288 1118,-208 694,-208"/>
<text text-anchor="start" x="703.8765" y="-269" font-family="Helvetica,sans-Serif" font-size="10.00" fill="#000000">+constructor(placa:Texto, modelo:Texto, propietario:Propietario, tipoVehiculo:TipoVehiculo)</text>
<text text-anchor="start" x="866.4075" y="-257" font-family="Helvetica,sans-Serif" font-size="10.00" fill="#000000">+getPlaca():Texto</text>
<text text-anchor="start" x="862.5185" y="-245" font-family="Helvetica,sans-Serif" font-size="10.00" fill="#000000">+getModelo():Texto</text>
<text text-anchor="start" x="843.0745" y="-233" font-family="Helvetica,sans-Serif" font-size="10.00" fill="#000000">+getPropietario():Propietario</text>
<text text-anchor="start" x="833.6245" y="-221" font-family="Helvetica,sans-Serif" font-size="10.00" fill="#000000">+getTipoVehiculo():TipoVehiculo</text>
</g>
<!-- A0&#45;&gt;A2 -->
<g id="edge1" class="edge">
<title>A0&#45;&gt;A2</title>
<path fill="none" stroke="#000000" d="M258.1769,-296.2125C274.4135,-303.8735 291.2243,-310.4428 308,-315 429.3444,-347.9635 569.543,-343.297 683.6795,-329.2039"/>
<polygon fill="#000000" stroke="#000000" points="693.9414,-327.9029 684.5868,-333.625 688.9811,-328.5318 684.0208,-329.1607 684.0208,-329.1607 684.0208,-329.1607 688.9811,-328.5318 683.4548,-324.6965 693.9414,-327.9029 693.9414,-327.9029"/>
<text text-anchor="middle" x="677.0223" y="-335.568" font-family="Helvetica,sans-Serif" font-size="10.00" fill="#000000">*</text>
<text text-anchor="middle" x="278.1768" y="-293.1637" font-family="Helvetica,sans-Serif" font-size="10.00" fill="#000000">1</text>
</g>
<!-- A5 -->
<g id="node6" class="node">
<title>A5</title>
<polygon fill="none" stroke="#000000" points="878,-158 878,-190 935,-190 935,-158 878,-158"/>
<text text-anchor="start" x="887.608" y="-171" font-family="Helvetica,sans-Serif" font-size="10.00" fill="#000000">Posicion</text>
<polygon fill="none" stroke="#000000" points="878,-114 878,-158 935,-158 935,-114 878,-114"/>
<text text-anchor="start" x="889.274" y="-139" font-family="Helvetica,sans-Serif" font-size="10.00" fill="#000000">i:Entero</text>
<text text-anchor="start" x="889.274" y="-127" font-family="Helvetica,sans-Serif" font-size="10.00" fill="#000000">j:Entero</text>
</g>
<!-- A0&#45;&gt;A5 -->
<g id="edge5" class="edge">
<title>A0&#45;&gt;A5</title>
<path fill="none" stroke="#000000" stroke-dasharray="5,2" d="M258.1769,-123.7875C274.4135,-116.1265 291.2243,-109.5572 308,-105 452.1106,-65.852 495.2544,-91.764 644,-105 724.0981,-112.1275 816.3593,-131.2811 867.24,-142.8186"/>
<polygon fill="#000000" stroke="#000000" points="877.1493,-145.0883 866.397,-147.242 872.2755,-143.972 867.4017,-142.8556 867.4017,-142.8556 867.4017,-142.8556 872.2755,-143.972 868.4064,-138.4692 877.1493,-145.0883 877.1493,-145.0883"/>
</g>
<!-- A7 -->
<g id="node8" class="node">
<title>A7</title>
<polygon fill="none" stroke="#000000" points="803,-64 803,-96 1009,-96 1009,-64 803,-64"/>
<text text-anchor="start" x="875.166" y="-77" font-family="Helvetica,sans-Serif" font-size="10.00" fill="#000000">Administrador</text>
<polygon fill="none" stroke="#000000" points="803,-44 803,-64 1009,-64 1009,-44 803,-44"/>
<polygon fill="none" stroke="#000000" points="803,0 803,-44 1009,-44 1009,0 803,0"/>
<text text-anchor="start" x="812.787" y="-25" font-family="Helvetica,sans-Serif" font-size="10.00" fill="#000000">+constructor(nombre:Texto, cedula:Texto)</text>
<text text-anchor="start" x="836.135" y="-13" font-family="Helvetica,sans-Serif" font-size="10.00" fill="#000000">+cambiarTarifa(Vehiculo, tarifa)</text>
</g>
<!-- A0&#45;&gt;A7 -->
<g id="edge4" class="edge">
<title>A0&#45;&gt;A7</title>
<path fill="none" stroke="#000000" d="M268.7522,-97.6315C281.5471,-90.7496 294.7084,-84.7136 308,-80 468.9536,-22.9206 669.552,-25.9149 792.6577,-35.3916"/>
<polygon fill="none" stroke="#000000" points="268.5652,-97.7362 265.2855,-104.1583 258.0959,-103.6009 261.3757,-97.1788 268.5652,-97.7362"/>
<polygon fill="#000000" stroke="#000000" points="802.8538,-36.205 792.5276,-39.8955 797.8697,-35.8074 792.8855,-35.4097 792.8855,-35.4097 792.8855,-35.4097 797.8697,-35.8074 793.2434,-30.924 802.8538,-36.205 802.8538,-36.205"/>
<text text-anchor="middle" x="784.1129" y="-40.1892" font-family="Helvetica,sans-Serif" font-size="10.00" fill="#000000">1</text>
<text text-anchor="middle" x="269.7791" y="-84.3681" font-family="Helvetica,sans-Serif" font-size="10.00" fill="#000000">1</text>
</g>
<!-- A8 -->
<g id="node9" class="node">
<title>A8</title>
<polygon fill="none" stroke="#000000" points="308,-274 308,-306 644,-306 644,-274 308,-274"/>
<text text-anchor="start" x="438.217" y="-287" font-family="Helvetica,sans-Serif" font-size="10.00" fill="#000000">RegistroVehiculo</text>
<polygon fill="none" stroke="#000000" points="308,-230 308,-274 644,-274 644,-230 308,-230"/>
<text text-anchor="start" x="430.153" y="-255" font-family="Helvetica,sans-Serif" font-size="10.00" fill="#000000">&#45;fechaIngreso:Fecha</text>
<text text-anchor="start" x="432.933" y="-243" font-family="Helvetica,sans-Serif" font-size="10.00" fill="#000000">&#45;fechaSalida:Fecha</text>
<polygon fill="none" stroke="#000000" points="308,-114 308,-230 644,-230 644,-114 308,-114"/>
<text text-anchor="start" x="317.7685" y="-211" font-family="Helvetica,sans-Serif" font-size="10.00" fill="#000000">+constructor(fechaIngreso:Fecha, vehiculo:Vehiculo, posicion:Posicion)</text>
<text text-anchor="start" x="416.9555" y="-199" font-family="Helvetica,sans-Serif" font-size="10.00" fill="#000000">+getFechaIngreso():Fecha</text>
<text text-anchor="start" x="419.7355" y="-187" font-family="Helvetica,sans-Serif" font-size="10.00" fill="#000000">+getFechaSalida():Fecha</text>
<text text-anchor="start" x="423.6295" y="-175" font-family="Helvetica,sans-Serif" font-size="10.00" fill="#000000">+getPosicion():Posicion</text>
<text text-anchor="start" x="423.0705" y="-163" font-family="Helvetica,sans-Serif" font-size="10.00" fill="#000000">+getVehiculo():Vehiculo</text>
<text text-anchor="start" x="421.4045" y="-151" font-family="Helvetica,sans-Serif" font-size="10.00" fill="#000000">+setFechaSalida(Fecha)</text>
<text text-anchor="start" x="424.46" y="-139" font-family="Helvetica,sans-Serif" font-size="10.00" fill="#000000">+calcularPago():double</text>
<text text-anchor="start" x="392.931" y="-127" font-family="Helvetica,sans-Serif" font-size="10.00" fill="#000000">&#45;obtenerHorasEntre(Fecha,Fecha):int</text>
</g>
<!-- A0&#45;&gt;A8 -->
<g id="edge3" class="edge">
<title>A0&#45;&gt;A8</title>
<path fill="none" stroke="#000000" d="M270.4431,-210C279.3924,-210 288.4595,-210 297.5447,-210"/>
<polygon fill="none" stroke="#000000" points="270.21,-210.0001 264.21,-214 258.21,-210 264.21,-206 270.21,-210.0001"/>
<polygon fill="#000000" stroke="#000000" points="307.8047,-210 297.8047,-214.5001 302.8047,-210 297.8047,-210.0001 297.8047,-210.0001 297.8047,-210.0001 302.8047,-210 297.8046,-205.5001 307.8047,-210 307.8047,-210"/>
<text text-anchor="middle" x="289.6785" y="-215.4524" font-family="Helvetica,sans-Serif" font-size="10.00" fill="#000000">*</text>
<text text-anchor="middle" x="276.3361" y="-198.5476" font-family="Helvetica,sans-Serif" font-size="10.00" fill="#000000">1</text>
</g>
<!-- A4 -->
<g id="node5" class="node">
<title>A4</title>
<polygon fill="none" stroke="#000000" points="1286.8398,-304 1210.1602,-304 1210.1602,-268 1286.8398,-268 1286.8398,-304"/>
<text text-anchor="middle" x="1248.5" y="-283" font-family="Helvetica,sans-Serif" font-size="10.00" fill="#000000">Propietario</text>
</g>
<!-- A2&#45;&gt;A4 -->
<g id="edge8" class="edge">
<title>A2&#45;&gt;A4</title>
<path fill="none" stroke="#000000" d="M1118.0384,-286C1148.5185,-286 1177.1682,-286 1199.812,-286"/>
<polygon fill="#000000" stroke="#000000" points="1210.1019,-286 1200.1019,-290.5001 1205.1019,-286 1200.1019,-286.0001 1200.1019,-286.0001 1200.1019,-286.0001 1205.1019,-286 1200.1018,-281.5001 1210.1019,-286 1210.1019,-286"/>
</g>
<!-- A6 -->
<g id="node7" class="node">
<title>A6</title>
<polygon fill="none" stroke="#000000" points="1168.5,-206 1168.5,-250 1329.5,-250 1329.5,-206 1168.5,-206"/>
<text text-anchor="start" x="1224.819" y="-231" font-family="Helvetica,sans-Serif" font-size="10.00" fill="#000000">&lt;&lt;enum&gt;&gt;</text>
<text text-anchor="start" x="1220.1055" y="-219" font-family="Helvetica,sans-Serif" font-size="10.00" fill="#000000">TipoVehiculo</text>
<polygon fill="none" stroke="#000000" points="1168.5,-150 1168.5,-206 1329.5,-206 1329.5,-150 1168.5,-150"/>
<text text-anchor="start" x="1216.5065" y="-187" font-family="Helvetica,sans-Serif" font-size="10.00" fill="#000000">CARRO(tarifa)</text>
<text text-anchor="start" x="1199.2845" y="-175" font-family="Helvetica,sans-Serif" font-size="10.00" fill="#000000">MOTOHIBRIDA(tarifa)</text>
<text text-anchor="start" x="1198.1695" y="-163" font-family="Helvetica,sans-Serif" font-size="10.00" fill="#000000">MOTOCLASICA(tarifa)</text>
<polygon fill="none" stroke="#000000" points="1168.5,-94 1168.5,-150 1329.5,-150 1329.5,-94 1168.5,-94"/>
<text text-anchor="start" x="1206.6295" y="-131" font-family="Helvetica,sans-Serif" font-size="10.00" fill="#000000">+getTarifa():double</text>
<text text-anchor="start" x="1178.0245" y="-119" font-family="Helvetica,sans-Serif" font-size="10.00" fill="#000000">+verificar(double,Administrador)</text>
<text text-anchor="start" x="1209.5535" y="-107" font-family="Helvetica,sans-Serif" font-size="10.00" fill="#000000">&#45;setTarifa(double)</text>
</g>
<!-- A2&#45;&gt;A6 -->
<g id="edge9" class="edge">
<title>A2&#45;&gt;A6</title>
<path fill="none" stroke="#000000" d="M1118.0384,-215.4237C1131.9971,-210.7776 1145.5719,-206.2593 1158.3617,-202.0022"/>
<polygon fill="#000000" stroke="#000000" points="1167.9826,-198.8 1159.9155,-206.2279 1163.2385,-200.3791 1158.4943,-201.9582 1158.4943,-201.9582 1158.4943,-201.9582 1163.2385,-200.3791 1157.0732,-197.6885 1167.9826,-198.8 1167.9826,-198.8"/>
</g>
<!-- A3 -->
<g id="node4" class="node">
<title>A3</title>
<polygon fill="none" stroke="#000000" points="1379,-201 1379,-233 1585,-233 1585,-201 1379,-201"/>
<text text-anchor="start" x="1463.383" y="-214" font-family="Helvetica,sans-Serif" font-size="10.00" fill="#000000">Persona</text>
<polygon fill="none" stroke="#000000" points="1379,-157 1379,-201 1585,-201 1585,-157 1379,-157"/>
<text text-anchor="start" x="1449.496" y="-182" font-family="Helvetica,sans-Serif" font-size="10.00" fill="#000000">&#45;nombre:Texto</text>
<text text-anchor="start" x="1451.7155" y="-170" font-family="Helvetica,sans-Serif" font-size="10.00" fill="#000000">&#45;cedula:Texto</text>
<polygon fill="none" stroke="#000000" points="1379,-101 1379,-157 1585,-157 1585,-101 1379,-101"/>
<text text-anchor="start" x="1388.787" y="-138" font-family="Helvetica,sans-Serif" font-size="10.00" fill="#000000">+constructor(nombre:Texto, cedula:Texto)</text>
<text text-anchor="start" x="1437.1335" y="-126" font-family="Helvetica,sans-Serif" font-size="10.00" fill="#000000">+getNombre():Texto</text>
<text text-anchor="start" x="1439.0735" y="-114" font-family="Helvetica,sans-Serif" font-size="10.00" fill="#000000">+getCedula():Texto</text>
</g>
<!-- A4&#45;&gt;A3 -->
<g id="edge11" class="edge">
<title>A4&#45;&gt;A3</title>
<path fill="none" stroke="#000000" d="M1286.8369,-275.0239C1300.4055,-270.6499 1315.6165,-265.1785 1329,-259 1342.5043,-252.7658 1356.322,-245.636 1369.8611,-238.1656"/>
<polygon fill="none" stroke="#000000" points="1371.6942,-241.1506 1378.7119,-233.2132 1368.2761,-235.0418 1371.6942,-241.1506"/>
</g>
<!-- A7&#45;&gt;A3 -->
<g id="edge10" class="edge">
<title>A7&#45;&gt;A3</title>
<path fill="none" stroke="#000000" d="M1009.0038,-45.5348C1096.0167,-46.1454 1223.0284,-53.4206 1329,-85 1342.4932,-89.021 1356.1571,-94.3053 1369.48,-100.2579"/>
<polygon fill="none" stroke="#000000" points="1368.0957,-103.4737 1378.6428,-104.4784 1371.0243,-97.1157 1368.0957,-103.4737"/>
</g>
<!-- A8&#45;&gt;A2 -->
<g id="edge7" class="edge">
<title>A8&#45;&gt;A2</title>
<path fill="none" stroke="#000000" d="M644.0967,-239.7101C657.1422,-242.0158 670.4299,-244.3644 683.7548,-246.7194"/>
<polygon fill="#000000" stroke="#000000" points="693.9482,-248.5211 683.3176,-251.2118 689.0245,-247.6508 684.1008,-246.7805 684.1008,-246.7805 684.1008,-246.7805 689.0245,-247.6508 684.8841,-242.3492 693.9482,-248.5211 693.9482,-248.5211"/>
</g>
<!-- A8&#45;&gt;A5 -->
<g id="edge6" class="edge">
<title>A8&#45;&gt;A5</title>
<path fill="none" stroke="#000000" d="M644.0967,-187.3265C725.6831,-176.3218 816.742,-164.0395 867.1201,-157.2443"/>
<polygon fill="#000000" stroke="#000000" points="877.2347,-155.88 867.926,-161.6764 872.2796,-156.5484 867.3244,-157.2168 867.3244,-157.2168 867.3244,-157.2168 872.2796,-156.5484 866.7229,-152.7572 877.2347,-155.88 877.2347,-155.88"/>
</g>
</g>
</svg>
