<?xml version="1.0" encoding="UTF-8" standalone="no"?>
<!DOCTYPE svg PUBLIC "-//W3C//DTD SVG 1.1//EN"
 "http://www.w3.org/Graphics/SVG/1.1/DTD/svg11.dtd">
<!-- Generated by graphviz version 2.40.1 (20161225.0304)
 -->
<!-- Title: G Pages: 1 -->
<svg width="724pt" height="300pt"
 viewBox="0.00 0.00 723.67 300.00" xmlns="http://www.w3.org/2000/svg" xmlns:xlink="http://www.w3.org/1999/xlink">
<g id="graph0" class="graph" transform="scale(1 1) rotate(0) translate(4 296)">
<title>G</title>
<polygon fill="#ffffff" stroke="transparent" points="-4,4 -4,-296 719.668,-296 719.668,4 -4,4"/>
<!-- A0 -->
<g id="node1" class="node">
<title>A0</title>
<polygon fill="none" stroke="#000000" points=".5,-122 .5,-154 109.5,-154 109.5,-122 .5,-122"/>
<text text-anchor="start" x="26.1005" y="-135" font-family="Helvetica,sans-Serif" font-size="10.00" fill="#000000">Parqueadero</text>
<polygon fill="none" stroke="#000000" points=".5,-90 .5,-122 109.5,-122 109.5,-90 .5,-90"/>
<text text-anchor="start" x="10.2675" y="-103" font-family="Helvetica,sans-Serif" font-size="10.00" fill="#000000">&#45;puestos:HashTable</text>
</g>
<!-- A1 -->
<g id="node2" class="node">
<title>A1</title>
<polygon fill="none" stroke="#000000" points="165.5,-260 165.5,-292 263.5,-292 263.5,-260 165.5,-260"/>
<text text-anchor="start" x="190.604" y="-273" font-family="Helvetica,sans-Serif" font-size="10.00" fill="#000000">Capacidad</text>
<polygon fill="none" stroke="#000000" points="165.5,-216 165.5,-260 263.5,-260 263.5,-216 165.5,-216"/>
<text text-anchor="start" x="187.831" y="-241" font-family="Helvetica,sans-Serif" font-size="10.00" fill="#000000">&#45;filas:Entero</text>
<text text-anchor="start" x="175.327" y="-229" font-family="Helvetica,sans-Serif" font-size="10.00" fill="#000000">&#45;columnas:Entero</text>
</g>
<!-- A0&#45;&gt;A1 -->
<g id="edge2" class="edge">
<title>A0&#45;&gt;A1</title>
<path fill="none" stroke="#000000" d="M102.9233,-161.9492C121.1035,-176.9479 141.8753,-194.0846 160.5283,-209.4734"/>
<polygon fill="none" stroke="#000000" points="102.8969,-161.9275 95.7231,-161.1946 93.6404,-154.2908 100.8142,-155.0236 102.8969,-161.9275"/>
<polygon fill="#000000" stroke="#000000" points="168.379,-215.9502 157.8015,-213.0575 164.5222,-212.7683 160.6653,-209.5863 160.6653,-209.5863 160.6653,-209.5863 164.5222,-212.7683 163.529,-206.1152 168.379,-215.9502 168.379,-215.9502"/>
</g>
<!-- A2 -->
<g id="node3" class="node">
<title>A2</title>
<polygon fill="none" stroke="#000000" points="323.834,-192 323.834,-224 406.834,-224 406.834,-192 323.834,-192"/>
<text text-anchor="start" x="346.1625" y="-205" font-family="Helvetica,sans-Serif" font-size="10.00" fill="#000000">Vehiculo</text>
<polygon fill="none" stroke="#000000" points="323.834,-148 323.834,-192 406.834,-192 406.834,-148 323.834,-148"/>
<text text-anchor="start" x="337.829" y="-173" font-family="Helvetica,sans-Serif" font-size="10.00" fill="#000000">&#45;placa:Texto</text>
<text text-anchor="start" x="333.385" y="-161" font-family="Helvetica,sans-Serif" font-size="10.00" fill="#000000">&#45;modelo:Texto</text>
</g>
<!-- A0&#45;&gt;A2 -->
<g id="edge1" class="edge">
<title>A0&#45;&gt;A2</title>
<path fill="none" stroke="#000000" d="M109.0863,-150.7514C124.8053,-157.8625 142.2421,-164.6758 159,-169 210.3197,-182.2424 270.9976,-185.8602 313.1179,-186.5529"/>
<polygon fill="#000000" stroke="#000000" points="323.1425,-186.6684 313.0913,-191.0528 318.1428,-186.6108 313.1432,-186.5531 313.1432,-186.5531 313.1432,-186.5531 318.1428,-186.6108 313.195,-182.0534 323.1425,-186.6684 323.1425,-186.6684"/>
<text text-anchor="middle" x="304.9202" y="-191.9114" font-family="Helvetica,sans-Serif" font-size="10.00" fill="#000000">*</text>
<text text-anchor="middle" x="129.0833" y="-147.4051" font-family="Helvetica,sans-Serif" font-size="10.00" fill="#000000">1</text>
</g>
<!-- A5 -->
<g id="node6" class="node">
<title>A5</title>
<polygon fill="none" stroke="#000000" points="336.834,-98 336.834,-130 393.834,-130 393.834,-98 336.834,-98"/>
<text text-anchor="start" x="346.442" y="-111" font-family="Helvetica,sans-Serif" font-size="10.00" fill="#000000">Posicion</text>
<polygon fill="none" stroke="#000000" points="336.834,-54 336.834,-98 393.834,-98 393.834,-54 336.834,-54"/>
<text text-anchor="start" x="348.108" y="-79" font-family="Helvetica,sans-Serif" font-size="10.00" fill="#000000">i:Entero</text>
<text text-anchor="start" x="348.108" y="-67" font-family="Helvetica,sans-Serif" font-size="10.00" fill="#000000">j:Entero</text>
</g>
<!-- A0&#45;&gt;A5 -->
<g id="edge5" class="edge">
<title>A0&#45;&gt;A5</title>
<path fill="none" stroke="#000000" stroke-dasharray="5,2" d="M109.1432,-92.2187C124.7899,-85.1456 142.1755,-78.6094 159,-75 216.3681,-62.6928 284.4944,-73.0645 326.1872,-82.1511"/>
<polygon fill="#000000" stroke="#000000" points="336.195,-84.419 325.4477,-86.5975 331.3186,-83.3139 326.4422,-82.2088 326.4422,-82.2088 326.4422,-82.2088 331.3186,-83.3139 327.4368,-77.8201 336.195,-84.419 336.195,-84.419"/>
</g>
<!-- A7 -->
<g id="node8" class="node">
<title>A7</title>
<polygon fill="none" stroke="#000000" points="409.5026,-36 320.1654,-36 320.1654,0 409.5026,0 409.5026,-36"/>
<text text-anchor="middle" x="364.834" y="-15" font-family="Helvetica,sans-Serif" font-size="10.00" fill="#000000">Administrador</text>
</g>
<!-- A0&#45;&gt;A7 -->
<g id="edge4" class="edge">
<title>A0&#45;&gt;A7</title>
<path fill="none" stroke="#000000" d="M117.1736,-84.2137C130.651,-77.1197 145.0461,-70.2829 159,-65 208.5621,-46.236 267.7947,-33.6755 309.9665,-26.2963"/>
<polygon fill="none" stroke="#000000" points="117.1451,-84.2291 113.7678,-90.6004 106.5876,-89.9334 109.9649,-83.5621 117.1451,-84.2291"/>
<polygon fill="#000000" stroke="#000000" points="320.0351,-24.5761 310.9358,-30.696 315.1065,-25.4182 310.1779,-26.2603 310.1779,-26.2603 310.1779,-26.2603 315.1065,-25.4182 309.42,-21.8245 320.0351,-24.5761 320.0351,-24.5761"/>
<text text-anchor="middle" x="303.5913" y="-32.9603" font-family="Helvetica,sans-Serif" font-size="10.00" fill="#000000">1</text>
<text text-anchor="middle" x="118.517" y="-70.8807" font-family="Helvetica,sans-Serif" font-size="10.00" fill="#000000">1</text>
</g>
<!-- A8 -->
<g id="node9" class="node">
<title>A8</title>
<polygon fill="none" stroke="#000000" points="159.5,-128 159.5,-160 270.5,-160 270.5,-128 159.5,-128"/>
<text text-anchor="start" x="177.217" y="-141" font-family="Helvetica,sans-Serif" font-size="10.00" fill="#000000">RegistroVehiculo</text>
<polygon fill="none" stroke="#000000" points="159.5,-84 159.5,-128 270.5,-128 270.5,-84 159.5,-84"/>
<text text-anchor="start" x="169.153" y="-109" font-family="Helvetica,sans-Serif" font-size="10.00" fill="#000000">&#45;fechaIngreso:Fecha</text>
<text text-anchor="start" x="171.933" y="-97" font-family="Helvetica,sans-Serif" font-size="10.00" fill="#000000">&#45;fechaSalida:Fecha</text>
</g>
<!-- A0&#45;&gt;A8 -->
<g id="edge3" class="edge">
<title>A0&#45;&gt;A8</title>
<path fill="none" stroke="#000000" d="M121.371,-122C130.4147,-122 139.6885,-122 148.713,-122"/>
<polygon fill="none" stroke="#000000" points="121.1154,-122.0001 115.1154,-126 109.1154,-122 115.1155,-118 121.1154,-122.0001"/>
<polygon fill="#000000" stroke="#000000" points="158.7705,-122 148.7706,-126.5001 153.7705,-122 148.7705,-122.0001 148.7705,-122.0001 148.7705,-122.0001 153.7705,-122 148.7705,-117.5001 158.7705,-122 158.7705,-122"/>
<text text-anchor="middle" x="140.6444" y="-127.4524" font-family="Helvetica,sans-Serif" font-size="10.00" fill="#000000">*</text>
<text text-anchor="middle" x="127.2416" y="-110.5476" font-family="Helvetica,sans-Serif" font-size="10.00" fill="#000000">1</text>
</g>
<!-- A4 -->
<g id="node5" class="node">
<title>A4</title>
<polygon fill="none" stroke="#000000" points="558.5078,-204 481.8282,-204 481.8282,-168 558.5078,-168 558.5078,-204"/>
<text text-anchor="middle" x="520.168" y="-183" font-family="Helvetica,sans-Serif" font-size="10.00" fill="#000000">Propietario</text>
</g>
<!-- A2&#45;&gt;A4 -->
<g id="edge8" class="edge">
<title>A2&#45;&gt;A4</title>
<path fill="none" stroke="#000000" d="M406.4607,-186C426.5259,-186 450.7148,-186 471.6149,-186"/>
<polygon fill="#000000" stroke="#000000" points="481.8907,-186 471.8908,-190.5001 476.8907,-186 471.8907,-186.0001 471.8907,-186.0001 471.8907,-186.0001 476.8907,-186 471.8907,-181.5001 481.8907,-186 481.8907,-186"/>
</g>
<!-- A6 -->
<g id="node7" class="node">
<title>A6</title>
<polygon fill="none" stroke="#000000" points="460.168,-106 460.168,-150 581.168,-150 581.168,-106 460.168,-106"/>
<text text-anchor="start" x="496.487" y="-131" font-family="Helvetica,sans-Serif" font-size="10.00" fill="#000000">&lt;&lt;enum&gt;&gt;</text>
<text text-anchor="start" x="491.7735" y="-119" font-family="Helvetica,sans-Serif" font-size="10.00" fill="#000000">TipoVehiculo</text>
<polygon fill="none" stroke="#000000" points="460.168,-50 460.168,-106 581.168,-106 581.168,-50 460.168,-50"/>
<text text-anchor="start" x="488.1745" y="-87" font-family="Helvetica,sans-Serif" font-size="10.00" fill="#000000">CARRO(tarifa)</text>
<text text-anchor="start" x="470.9525" y="-75" font-family="Helvetica,sans-Serif" font-size="10.00" fill="#000000">MOTOHIBRIDA(tarifa)</text>
<text text-anchor="start" x="469.8375" y="-63" font-family="Helvetica,sans-Serif" font-size="10.00" fill="#000000">MOTOCLASICA(tarifa)</text>
</g>
<!-- A2&#45;&gt;A6 -->
<g id="edge9" class="edge">
<title>A2&#45;&gt;A6</title>
<path fill="none" stroke="#000000" d="M406.4607,-162.9536C420.0579,-155.4255 435.5488,-146.849 450.6267,-138.5012"/>
<polygon fill="#000000" stroke="#000000" points="459.4392,-133.6222 452.8702,-142.4028 455.0649,-136.0441 450.6906,-138.4659 450.6906,-138.4659 450.6906,-138.4659 455.0649,-136.0441 448.5109,-134.529 459.4392,-133.6222 459.4392,-133.6222"/>
</g>
<!-- A3 -->
<g id="node4" class="node">
<title>A3</title>
<polygon fill="none" stroke="#000000" points="631.168,-108 631.168,-140 716.168,-140 716.168,-108 631.168,-108"/>
<text text-anchor="start" x="655.051" y="-121" font-family="Helvetica,sans-Serif" font-size="10.00" fill="#000000">Persona</text>
<polygon fill="none" stroke="#000000" points="631.168,-64 631.168,-108 716.168,-108 716.168,-64 631.168,-64"/>
<text text-anchor="start" x="641.164" y="-89" font-family="Helvetica,sans-Serif" font-size="10.00" fill="#000000">&#45;nombre:Texto</text>
<text text-anchor="start" x="643.3835" y="-77" font-family="Helvetica,sans-Serif" font-size="10.00" fill="#000000">&#45;cedula:Texto</text>
</g>
<!-- A4&#45;&gt;A3 -->
<g id="edge11" class="edge">
<title>A4&#45;&gt;A3</title>
<path fill="none" stroke="#000000" d="M558.6187,-169.7612C566.0209,-166.3773 573.6506,-162.7071 580.668,-159 594.3499,-151.7722 608.7613,-143.3239 622.0297,-135.1793"/>
<polygon fill="none" stroke="#000000" points="623.9106,-138.1313 630.5648,-129.8868 620.2216,-132.1822 623.9106,-138.1313"/>
</g>
<!-- A7&#45;&gt;A3 -->
<g id="edge10" class="edge">
<title>A7&#45;&gt;A3</title>
<path fill="none" stroke="#000000" d="M409.6032,-16.6856C454.2341,-16.7648 524.0962,-20.6965 580.668,-41 594.7905,-46.0685 608.8943,-53.7114 621.6798,-61.8892"/>
<polygon fill="none" stroke="#000000" points="620.0368,-64.9993 630.3046,-67.6112 623.9066,-59.1663 620.0368,-64.9993"/>
</g>
<!-- A8&#45;&gt;A2 -->
<g id="edge7" class="edge">
<title>A8&#45;&gt;A2</title>
<path fill="none" stroke="#000000" d="M270.0517,-145.6494C284.3231,-151.725 299.6087,-158.2324 313.6477,-164.2091"/>
<polygon fill="#000000" stroke="#000000" points="323.1401,-168.2501 312.1765,-168.4735 318.5396,-166.2916 313.9392,-164.3331 313.9392,-164.3331 313.9392,-164.3331 318.5396,-166.2916 315.7018,-160.1926 323.1401,-168.2501 323.1401,-168.2501"/>
</g>
<!-- A8&#45;&gt;A5 -->
<g id="edge6" class="edge">
<title>A8&#45;&gt;A5</title>
<path fill="none" stroke="#000000" d="M270.0517,-110.9143C288.6149,-107.2099 308.8943,-103.1631 325.914,-99.7667"/>
<polygon fill="#000000" stroke="#000000" points="336.0454,-97.7449 327.1194,-104.115 331.1421,-98.7235 326.2388,-99.702 326.2388,-99.702 326.2388,-99.702 331.1421,-98.7235 325.3581,-95.289 336.0454,-97.7449 336.0454,-97.7449"/>
</g>
</g>
</svg>
